<?xml version="1.0" encoding="utf-8" ?><svg xmlns="http://www.w3.org/2000/svg" xmlns:xlink="http://www.w3.org/1999/xlink" width="1024" height="1024" viewBox="0 0 1024 1024"><path transform="scale(2 2)" d="M260.647 177.686C227.173 180.19 198.018 155.058 195.562 121.58C193.106 88.1023 218.28 58.9836 251.761 56.5753C285.175 54.1717 314.222 79.2841 316.673 112.694C319.124 146.104 294.054 175.187 260.647 177.686ZM284.666 77.3259C264.136 61.4382 234.869 63.8735 217.246 82.9358C199.624 101.998 199.491 131.367 216.939 150.588C229.669 164.611 249.221 170.253 267.465 165.168C285.709 160.082 299.523 145.14 303.162 126.553C306.802 107.967 299.645 88.9171 284.666 77.3259Z"/><path fill="#ea7dff" transform="scale(2 2)" d="M284.666 77.3259C299.645 88.9171 306.802 107.967 303.162 126.553C299.523 145.14 285.709 160.082 267.465 165.168C249.221 170.253 229.669 164.611 216.939 150.588C257.981 165.986 297.882 136.381 289.107 92.7166C288.037 87.395 286.326 82.4588 284.666 77.3259Z"/><path transform="scale(2 2)" d="M274.826 131.208C274.699 131.341 274.509 131.551 274.373 131.626C261.644 138.653 271.025 105.393 271.221 102.12C271.556 96.527 267.047 88.6034 272.311 84.7007C277.231 84.4429 281.897 94.3163 282.292 98.5861C283.226 108.666 281.015 123.016 274.826 131.208Z"/><path transform="scale(2 2)" d="M201.936 212.312C160.421 212.646 107.17 200.987 75.7848 173.865C44.9709 147.236 67.1526 119.61 98.9848 118.148C119.212 116.333 134.185 128.863 123.965 148.914C158.016 159.495 188.458 167.308 223.767 174.334C271.531 183.837 299.529 176.599 346.171 164.634C359.881 161.118 373.745 158.193 387.522 154.928C360.71 130.488 405.742 112.879 438.592 132.22C450.325 139.128 458.061 155.126 448.974 167.1C428.609 193.934 368.888 200.957 335.965 203.924C328.563 204.317 317.527 205.662 311.3 201.44C291.805 260.261 320.12 309.144 333.889 365.176C338.351 383.329 342.444 401.726 344.99 420.265C345.406 423.298 345.726 426.463 346.493 429.418C346.362 437.434 347.757 445.7 339.895 450.825C330.638 456.86 314.14 454.804 307.096 446.099C304.73 442.753 304.149 438.35 302.765 434.612C291.629 404.527 273.561 357.411 255.055 330.991C243.567 367.616 246.806 407.08 229.163 443.749C223.117 454.912 212.842 454.246 202.698 454.239C172.193 454.217 179.878 433.991 188.273 414.698C193.765 402.077 199.508 384.129 202.463 370.395C202.926 368.247 201.686 360.299 201.342 357.621L199.433 342.186C198.352 333.416 197.137 318.886 195.383 310.709C193.712 308.775 194.904 303.813 194.527 300.01C191.974 274.203 191.452 247.634 198.787 222.51C199.735 219.264 201.156 215.915 201.866 212.642L201.936 212.312ZM424.245 137.83C414.94 134.261 402.468 131.467 392.845 135.152C382.657 139.052 389.39 147.636 393.077 153.593C399.898 149.454 401.433 146.25 406.697 142.183C409.699 142.931 406.324 148.704 405.347 150.129C394.151 166.464 313.246 178.08 286.518 183.95C273.215 186.118 265.901 187.263 252.151 186.812C245.785 186.778 233.493 185.076 226.813 183.95C223.785 188.517 219.626 196.178 218.01 201.44C218.85 202.929 218.934 203.543 219.328 205.2C218.463 208.454 217.703 208.804 214.918 210.675C206.145 235.738 203.934 262.4 205.215 288.822C205.39 292.417 205.479 295.61 204.974 299.178C215.924 295.828 224.97 294.108 235.867 291.606C239.925 291.712 243.943 291.299 247.995 291.13C255.326 290.824 262.565 291.884 269.862 291.606C275.642 293.999 293.605 298.174 300.842 300.146C290.793 266.158 289.25 228.534 304.602 195.918C306.058 192.826 311.687 181.66 315.494 181.762C318.035 183.158 313.811 193.097 313.101 195.377C320.795 192.141 341.689 192.785 351.727 190.524C371.858 190.427 431.176 175.492 439.445 158.533C443.955 149.283 431.297 140.77 424.245 137.83ZM241.832 303.233C228.606 304.727 219.635 306.299 206.607 309.919C206.645 316.725 207.142 323.328 207.536 330.116C208.683 349.877 209.069 368.928 209.009 388.649C207.804 385.264 207.28 383.561 206.607 380.002C205.57 383.136 204.725 387.184 204.122 390.433C201.75 403.26 197.432 415.639 192.966 427.851C187.435 442.977 192.854 442.709 207.328 442.466C209.683 442.611 214.937 442.715 216.455 440.953C228.836 426.587 239.245 352.317 249.229 325.758C253.59 313.636 264.183 331.036 266.502 334.742C268.202 337.693 270.373 341.478 272.311 344.269C274.601 348.063 281.385 360.921 283.615 363.507C285.295 367.047 286.939 370.371 288.79 373.829C292.101 380.396 295.58 386.782 298.922 393.395C300.34 396.456 301.823 399.833 303.323 402.827C306.403 409.455 309.262 415.709 312.05 422.484C313.297 425.889 314.469 429.112 315.899 432.442L318.069 439.532C320.802 440.564 323.098 440.981 325.958 441.028C337.112 441.209 332.274 432.949 332.408 424.032C331.464 420.373 330.987 416.77 330.409 413.04C330.016 407.487 327.74 395.983 326.664 390.269C325.96 386.303 325.235 383.131 324.211 379.252C322.439 371.783 318.982 361.534 318.069 354.262C316.68 351.069 315.733 347.595 314.57 344.269C314.039 340.315 309.516 327.219 308.053 322.911C307.027 319.663 306.308 317.2 304.748 314.149C304.276 314.144 303.797 314.149 303.323 314.149C287.202 305.803 259.37 302.848 241.832 303.233ZM98.9848 131.208C83.0528 130.457 63.2022 144.478 80.0989 160.926C110.903 190.913 166.134 200.458 207.328 200.25C208.256 197.899 209.453 195.878 210.769 193.725C213.161 190.04 215.521 186.497 218.01 182.877C197.103 183.761 152.684 171.387 133.019 164.314C120.557 159.832 101.237 152.845 102.952 136.481C107.401 140.573 112.349 144.136 118.045 146.274C117.12 136.059 109.588 126.46 98.9848 131.208Z"/><path fill="#ea7dff" transform="scale(2 2)" d="M424.245 137.83C431.297 140.77 443.955 149.283 439.445 158.533C431.176 175.492 371.858 190.427 351.727 190.524C357.287 187.248 363.667 185.258 369.368 182.334C388.89 172.32 415.093 158.965 424.245 137.83Z"/><path fill="#ea7dff" transform="scale(2 2)" d="M252.151 186.812C265.901 187.263 273.215 186.118 286.518 183.95C285.481 186.684 282.873 190.208 281.329 192.809C265.356 219.729 259.887 253.2 267.719 283.624C268.248 285.678 269.607 289.682 269.862 291.606C262.565 291.884 255.326 290.824 247.995 291.13C243.943 291.299 239.925 291.712 235.867 291.606C231.755 267.699 228.886 252.873 234.796 227.682C237.371 216.709 244.151 194.933 252.151 186.812Z"/><path fill="#ea7dff" transform="scale(2 2)" d="M241.832 303.233C259.37 302.848 287.202 305.803 303.323 314.149C297.125 315.538 274.432 329.612 266.502 334.742C264.183 331.036 253.59 313.636 249.229 325.758C239.245 352.317 228.836 426.587 216.455 440.953C214.937 442.715 209.683 442.611 207.328 442.466C207.837 438.079 208.559 434.261 209.22 429.923L213.201 403.623C217.757 372.923 220.93 336.195 237.933 309.504C239.177 307.551 241.153 305.472 242.084 303.554L241.832 303.233Z"/><path fill="#ea7dff" transform="scale(2 2)" d="M272.311 344.269C279.165 339.495 300.24 326.361 308.053 322.911C309.516 327.219 314.039 340.315 314.57 344.269C304.481 350.989 293.878 357.031 283.615 363.507C281.385 360.921 274.601 348.063 272.311 344.269Z"/><path fill="#ea7dff" transform="scale(2 2)" d="M318.069 354.262C318.982 361.534 322.439 371.783 324.211 379.252C315.899 382.871 305.991 390.891 298.922 393.395C295.58 386.782 292.101 380.396 288.79 373.829C291.124 371.083 312.742 356.74 318.069 354.262Z"/><path fill="#ea7dff" transform="scale(2 2)" d="M326.664 390.269C327.74 395.983 330.016 407.487 330.409 413.04C324.156 416.028 318.013 418.943 312.05 422.484C309.262 415.709 306.403 409.455 303.323 402.827C309.603 399.551 320.304 392.539 326.664 390.269Z"/><path fill="#ea7dff" transform="scale(2 2)" d="M315.899 432.442C319.22 430.765 329.665 424.943 332.408 424.032C332.274 432.949 337.112 441.209 325.958 441.028C323.098 440.981 320.802 440.564 318.069 439.532L315.899 432.442Z"/></svg>
