<?xml version="1.0" encoding="utf-8" ?><svg xmlns="http://www.w3.org/2000/svg" xmlns:xlink="http://www.w3.org/1999/xlink" width="1024" height="1024" viewBox="0 0 1024 1024"><path transform="scale(2 2)" d="M355.655 123.254C358.443 114.759 364.235 100.894 359.701 92.3581C346.746 67.962 315.794 56.7744 290.537 49.6293C284.125 51.3954 282.674 58.4486 288.373 60.8456C293.666 63.0321 299.383 64.1057 304.677 66.3618C320.026 72.903 334.468 82.1183 345.327 94.9369C346.544 96.3734 350.629 100.944 350.06 102.652C348.137 103.696 336.705 93.1311 333.838 91.203C322.258 83.4158 309.705 77.4321 296.619 72.6468C292.632 71.1888 288.256 70.4248 284.459 68.5461C270.83 60.9112 277.61 39.9365 291.623 40.7291C317.524 42.1941 359.476 65.1463 371.001 87.8055C377.73 101.037 370.302 120.549 365.522 133.329C352.408 168.4 335.859 198.316 310.541 225.709C313.398 233.827 314.197 244.302 315.169 252.957C321.078 305.568 316.804 358.783 311.325 411.238C310.604 418.143 309.723 436.899 307.077 442.413C301.517 453.998 284.401 452.659 281.062 440.418C279.492 434.66 280.326 422.324 280.152 415.784C279.396 387.42 277.606 358.764 270.546 331.18C269.86 328.497 268.721 325.59 268.524 322.84L227.683 420.661C222.083 433.7 216.417 447.234 210.108 459.978C203.788 470.212 188.78 468.82 184.317 457.366C181.9 451.166 185.043 443.967 186.53 437.75L204.483 358.424C211.745 325.076 223.084 268.459 214.533 234.39C184.347 210.459 160.267 176.237 145.415 140.902C138.282 123.934 133.019 111.29 146.459 95.2341C156.122 83.6912 201.68 49.7406 217.022 61.6141C222.931 66.1869 223.201 74.1907 218.494 79.7543C215.364 83.3135 209.363 85.4661 205.409 88.1132C194.928 94.6653 173.631 110.058 169.338 121.62C177.135 147.531 221.517 176.95 246.161 183.433C250.425 184.554 254.775 184.496 258.804 186.153C263.232 187.973 261.148 196.22 257.196 196.538C244.651 197.549 231.07 191.308 219.779 186.364C197.883 175.667 177.546 157.801 164.133 137.631C158.123 128.592 153.817 121.597 160.976 111.289C170.761 97.3613 184.95 86.8235 199.222 77.8458C203.076 75.4214 207.133 74.5207 211.081 71.9449C215.285 69.2018 212.561 62.1065 208.292 62.6817C205.888 63.0056 201.329 66.4278 198.976 67.3648C182.101 76.0866 162.286 87.1322 151.74 103.422C142.9 117.079 164.254 154.52 172.397 166.958C180.737 184.055 199.99 205.321 213.57 217.905C218.7 222.66 224.7 226.69 229.69 231.486C233.404 235.056 229.056 240.778 224.746 241.109L224.277 241.415C224.319 243.374 225.253 245.88 225.396 248.039C226.781 269.011 226.304 291.429 222.817 312.217C215.031 358.634 204.161 405.277 193.091 450.981C193.712 452.788 194.085 454.044 195.353 455.538C199.299 456.764 201.649 448.654 203.077 445.471C212.364 424.77 249.863 328.442 265.291 318.922C267.353 319.161 267.403 321.432 268.095 318.562L268.478 318.251C270.311 318.66 272.985 325.21 273.785 327.083C283.906 350.789 287.259 378.532 289.259 404.081L290.446 420.784C290.641 423.596 290.73 427.383 291.255 430.067C291.265 432.785 290.873 437.272 293.6 438.75C298.068 438.651 297.554 425.946 297.819 422.949L299.78 402.566C304.544 347.985 309.682 292.892 300.968 238.435C296.63 211.33 295.362 228.707 312.857 204.829C329.94 181.514 348.913 150.929 355.655 123.254Z"/><path transform="scale(2 2)" d="M220.782 103.898C218.655 102.231 216.544 100.375 218.829 97.7526C227.741 87.529 241.196 86.094 253.832 84.7507C270.157 84.2213 284.177 82.1157 292.043 98.2171C307.711 130.292 300.976 176.285 259.813 177.748C220.195 178.397 209.912 134.171 220.825 103.346L220.782 103.898ZM254.967 96.3368C244.636 96.8991 236.451 97.6455 226.9 102.44C221.772 126.623 224.38 166.735 257.483 165.644C293.648 163.021 293.391 116.904 276.739 97.3416C268.974 96.3811 262.755 96.2911 254.967 96.3368Z"/><path transform="scale(2 2)" d="M270.311 190.879L269.52 190.594L269.36 190.138C269.761 189.106 271.229 188.331 272.155 187.78C302.39 169.78 324.426 142.599 342.466 112.885C344.068 110.246 346.264 106.434 348.257 104.175L348.505 103.898C348.934 104.143 349.481 104.696 349.389 105.201C343.123 136.66 303.782 187.994 270.311 190.879Z"/><path fill="#ea7dff" transform="scale(2 2)" d="M172.397 166.958C174.06 168.216 176.617 171.142 178.161 172.839C188.141 183.802 200.704 194.573 213.931 201.386C274.746 232.709 314.369 199.027 343.955 143.985C345.862 140.443 354.104 124.353 355.655 123.254C348.913 150.929 329.94 181.514 312.857 204.829C295.362 228.707 296.63 211.33 300.968 238.435C309.682 292.892 304.544 347.985 299.78 402.566L297.819 422.949C297.554 425.946 298.068 438.651 293.6 438.75C290.873 437.272 291.265 432.785 291.255 430.067C293.262 424.833 293.645 413.594 294.107 407.884C296.576 377.356 295.034 345.818 285.039 316.461C291.446 319.154 297.794 316.363 294.807 309.53C289.95 298.415 271.125 302.413 262.926 306.365C259.804 307.87 233.167 324.465 245.318 327.373C249.217 328.306 258.756 319.911 265.291 318.922L265.291 318.922C249.863 328.442 212.364 424.77 203.077 445.471C201.649 448.654 199.299 456.764 195.353 455.538C198.719 449.709 202.429 434.835 204.558 428.15C210.135 410.64 214.454 393.167 219.272 375.473C227.487 345.307 236.929 315.288 235.71 283.68C235.326 273.721 232.107 248.054 224.746 241.109C229.056 240.778 233.404 235.056 229.69 231.486C224.7 226.69 218.7 222.66 213.57 217.905C199.99 205.321 180.737 184.055 172.397 166.958Z"/><path transform="scale(2 2)" d="M285.039 316.461C279.334 312.392 270.403 314.956 265.291 318.922C258.756 319.911 249.217 328.306 245.318 327.373C233.167 324.465 259.804 307.87 262.926 306.365C271.125 302.413 289.95 298.415 294.807 309.53C297.794 316.363 291.446 319.154 285.039 316.461Z"/></svg>
